<?xml version="1.0" encoding="UTF-8"?>
<!DOCTYPE svg PUBLIC "-//W3C//DTD SVG 1.1//EN" "http://www.w3.org/Graphics/SVG/1.1/DTD/svg11.dtd">
<!-- Creator: CorelDRAW X7 -->
<svg xmlns="http://www.w3.org/2000/svg" xml:space="preserve" width="425px" height="81px" version="1.1" style="shape-rendering:geometricPrecision; text-rendering:geometricPrecision; image-rendering:optimizeQuality; fill-rule:evenodd; clip-rule:evenodd"
viewBox="0 0 2345 444"
 xmlns:xlink="http://www.w3.org/1999/xlink">
 <defs>
  <style type="text/css">
   <![CDATA[
    .fil2 {fill:#676766}
    .fil1 {fill:#FF732D}
    .fil0 {fill:white}
   ]]>
  </style>
 </defs>
 <g id="Layer_x0020_1">
  <metadata id="CorelCorpID_0Corel-Layer"/>
  <g id="photofunia.ai">
   <g>
    <path class="fil0" d="M8 126c0,0 -2,-42 29,-69 33,-28 65,-25 65,-25l83 0c0,0 25,0 47,7 21,7 39,20 39,20 0,0 23,-67 91,-57 86,13 79,96 79,96 0,0 40,2 65,14 31,14 49,39 49,39 0,0 33,-43 99,-51 77,-10 117,31 117,31l24 -15c0,0 2,-90 84,-90 90,0 91,83 91,83l27 21c0,0 36,-32 95,-32 66,0 97,32 97,32 0,0 -1,-45 27,-71 29,-27 67,-28 67,-28l107 0c0,0 29,-1 53,18 32,25 29,51 29,51 0,0 24,-1 41,7 18,9 30,27 30,27 0,0 19,-29 59,-32 48,-5 67,18 67,18 0,0 17,-14 42,-19 33,-6 52,8 52,8 0,0 27,-12 65,-10 45,2 66,23 66,23 0,0 -27,-109 88,-120 43,-3 81,32 90,63 11,35 -5,67 -5,67 0,0 31,-24 69,-32 38,-8 76,8 76,8 0,0 51,-20 85,5 45,32 40,69 40,69l0 171c0,0 4,47 -44,77 -36,23 -80,3 -80,3 0,0 -34,16 -83,6 -44,-8 -75,-42 -75,-42 0,0 -7,35 -58,43 -48,7 -72,-20 -72,-20 0,0 -23,25 -69,21 -46,-5 -61,-37 -61,-37 0,0 -11,37 -70,37 -52,0 -70,-37 -70,-37 0,0 -64,61 -165,30 -92,-28 -101,-115 -101,-115l-19 3 0 29c0,0 3,59 -55,84 -69,29 -110,-34 -110,-34 0,0 -48,48 -128,41 -75,-7 -110,-66 -110,-66 0,0 -10,65 -81,65 -68,0 -84,-53 -84,-53 0,0 -48,54 -118,54 -85,0 -117,-41 -117,-41 0,0 -18,41 -69,41 -61,0 -74,-37 -74,-37 0,0 -22,42 -83,35 -60,-6 -76,-67 -76,-82 0,-28 0,-38 0,-38 0,0 -25,18 -76,20 0,26 -9,101 -85,102 -94,1 -97,-88 -97,-98 0,-11 1,-218 1,-218z"/>
   </g>
  </g>
  <g id="funia.ai">
   <g>
    <path class="fil1" d="M2217 361c-20,22 -35,26 -61,26 -54,0 -97,-52 -97,-117 0,-65 43,-117 97,-117 23,0 43,4 61,26 2,-30 66,-38 66,10 0,26 0,115 0,161 0,45 -63,45 -66,11zm-47 -149l0 0c-25,0 -46,26 -46,58 0,32 21,57 46,57 25,0 46,-25 46,-57 0,-32 -21,-58 -46,-58zm-188 -78l0 0c-22,0 -39,-17 -39,-38 0,-22 17,-39 39,-39 21,0 38,17 38,39 0,21 -17,38 -38,38zm-150 216l0 0c0,-50 0,-100 0,-100 0,0 1,-19 -13,-33 -12,-10 -31,-12 -46,-1 -9,6 -14,17 -16,29 0,53 0,101 0,106 0,46 -65,46 -65,0 0,-49 0,-106 0,-156 0,-45 50,-54 65,-17 30,-32 75,-27 102,-14 28,13 38,42 38,71 0,30 0,70 0,115 0,46 -65,49 -65,0zm-289 38l0 0c-55,0 -101,-40 -102,-85 0,0 0,-115 0,-114 0,-45 67,-45 67,0 0,35 0,101 0,101 0,0 1,37 35,37 37,0 36,-37 36,-37 0,0 0,-96 0,-101 0,-46 67,-45 67,0 0,4 0,114 0,114 -1,49 -48,85 -103,85zm-156 -241l0 0c-33,0 -72,0 -72,0 0,0 0,26 0,59 8,0 36,0 65,0 40,0 39,60 0,60 -30,0 -57,0 -65,0 0,36 0,70 0,87 0,45 -69,46 -69,0 0,-44 0,-218 0,-230 0,-19 17,-38 37,-38 25,0 73,0 104,0 43,0 43,62 0,62zm629 41l0 0c0,43 0,118 0,163 0,47 -68,45 -68,0 0,-40 0,-123 0,-163 0,-45 68,-44 68,0z"/>
   </g>
  </g>
  <g id="photo.ai">
   <g>
    <path class="fil2" d="M1093 388c-66,0 -110,-53 -110,-118 0,-65 42,-118 110,-118 67,0 110,53 110,118 0,65 -45,118 -110,118zm0 -176l0 0c-28,0 -46,26 -46,58 0,32 19,58 46,58 27,0 45,-26 45,-58 0,-32 -17,-58 -45,-58zm-159 5l0 0c-7,0 -14,0 -20,0 0,55 0,114 0,136 0,42 -65,44 -65,0 0,-21 0,-80 0,-136 -6,0 -13,0 -19,0 -41,0 -41,-62 0,-62 6,0 13,0 19,0 0,-18 0,-34 0,-44 0,-41 65,-42 65,0 0,7 0,23 0,44 6,0 13,0 20,0 40,0 40,62 0,62zm-260 171l0 0c-66,0 -110,-53 -110,-118 0,-65 43,-118 110,-118 67,0 110,53 110,118 0,65 -44,118 -110,118zm0 -176l0 0c-28,0 -46,26 -46,58 0,32 19,58 46,58 27,0 45,-26 45,-58 0,-32 -17,-58 -45,-58zm-216 138l0 0c0,-50 0,-100 0,-100 0,0 3,-19 -12,-33 -11,-10 -32,-12 -47,-1 -9,6 -14,17 -16,29 0,53 0,101 0,106 0,45 -65,46 -65,0 0,-49 0,-212 0,-262 0,-44 65,-44 65,0 0,10 0,45 0,85 31,-26 75,-23 103,-10 27,13 37,42 37,71 0,30 0,69 0,115 0,46 -65,49 -65,0zm-264 -66l0 0c-53,0 -64,0 -64,0 0,0 0,34 0,63 0,54 -71,53 -71,0 0,-48 0,-194 0,-218 0,-24 15,-43 39,-43 19,0 60,0 75,0 55,0 87,28 97,55 5,13 9,27 9,46 0,20 -5,33 -8,43 -7,22 -36,54 -77,54zm-26 -139l0 0 -38 0 0 81 41 0c0,0 39,-1 39,-42 0,-41 -42,-39 -42,-39z"/>
   </g>
  </g>
 </g>
</svg>
